<svg width="100" height="100" viewBox="0 0 100 100" fill="none" xmlns="http://www.w3.org/2000/svg">
<rect width="100" height="100" rx="12" fill="white"/>
<path d="M30.125 16.5L19.875 26.7594L15.875 22.7594L11.375 27.25L17.625 33.5L19.875 35.6437L22.125 33.4969L34.625 20.9969L30.125 16.4969V16.5ZM44.875 21.875V28.125H85.5V21.875H44.875ZM30.125 66.5L19.875 76.7594L15.875 72.7594L11.375 77.25L17.625 83.5L19.875 85.6438L22.125 83.4969L34.625 70.9969L30.125 66.4969V66.5ZM44.875 71.875V78.125H85.5V71.875H44.875Z" fill="#959595"/>
<path d="M30.125 41.5L19.875 51.7625L15.875 47.75L11.375 52.25L17.625 58.5L19.875 60.6438L22.125 58.4969L34.625 45.9969L30.125 41.5ZM44.875 46.875V53.125H85.5V46.875H44.875Z" fill="#1157B9"/>
</svg>
